<svg width="4" height="12" viewBox="0 0 4 12" fill="none" xmlns="http://www.w3.org/2000/svg">
<path fill-rule="evenodd" clip-rule="evenodd" d="M2.00605 11.75C1.31652 11.75 0.752929 11.1913 0.75293 10.5C0.75293 9.80875 1.3053 9.25 1.99358 9.25H2.00605C2.69557 9.25 3.25293 9.80875 3.25293 10.5C3.25293 11.1913 2.69557 11.75 2.00605 11.75Z" fill="#EE7F01"/>
<path fill-rule="evenodd" clip-rule="evenodd" d="M2.00323 7.25C1.31336 7.25 0.750732 6.69125 0.750732 6C0.750732 5.30875 1.30213 4.75 1.992 4.75H2.00323C2.6931 4.75 3.25073 5.30875 3.25073 6C3.25073 6.69125 2.6931 7.25 2.00323 7.25Z" fill="#EE7F01"/>
<path fill-rule="evenodd" clip-rule="evenodd" d="M2.00312 2.75C1.31359 2.75 0.75 2.19125 0.75 1.5C0.75 0.80875 1.30237 0.25 1.9919 0.25H2.00312C2.69264 0.25 3.25 0.80875 3.25 1.5C3.25 2.19125 2.69264 2.75 2.00312 2.75Z" fill="#EE7F01"/>
</svg>
