<svg width="20" height="21" viewBox="0 0 20 21" fill="none" xmlns="http://www.w3.org/2000/svg">
<path fill-rule="evenodd" clip-rule="evenodd" d="M5.665 2C3.135 2 1.5 3.733 1.5 6.416V14.584C1.5 17.267 3.135 19 5.665 19H14.333C16.864 19 18.5 17.267 18.5 14.584V6.416C18.5 3.733 16.864 2 14.334 2H5.665ZM14.333 20.5H5.665C2.276 20.5 0 18.122 0 14.584V6.416C0 2.878 2.276 0.5 5.665 0.5H14.334C17.723 0.5 20 2.878 20 6.416V14.584C20 18.122 17.723 20.5 14.333 20.5Z" fill="black"/>
<path fill-rule="evenodd" clip-rule="evenodd" d="M8.81351 13.6232C8.62251 13.6232 8.42951 13.5502 8.28351 13.4032L5.90951 11.0302C5.61651 10.7372 5.61651 10.2632 5.90951 9.97019C6.20251 9.67719 6.67651 9.67719 6.96951 9.97019L8.81351 11.8122L13.0295 7.59719C13.3225 7.30419 13.7965 7.30419 14.0895 7.59719C14.3825 7.89019 14.3825 8.36419 14.0895 8.65719L9.34351 13.4032C9.19751 13.5502 9.00551 13.6232 8.81351 13.6232Z" fill="black"/>
</svg>
