<svg width="5955" height="30" viewBox="0 0 5955 30" fill="none" xmlns="http://www.w3.org/2000/svg">
<path d="M3190.29 0H3374.57L3344.57 30H3160.29L3190.29 0Z" fill="#EE7F01"/>
<path d="M4111.71 0H4296L4266 30H4081.71L4111.71 0Z" fill="black"/>
<path d="M3374.57 0H3558.86L3528.86 30H3344.57L3374.57 0Z" fill="black"/>
<path d="M3006 0H3190.29L3160.29 30H2976L3006 0Z" fill="black"/>
<path d="M3558.86 0H3743.14L3713.14 30H3528.86L3558.86 0Z" fill="#EE7F01"/>
<path d="M3743.14 0H3927.43L3897.43 30H3713.14L3743.14 0Z" fill="black"/>
<path d="M3927.43 0H4111.71L4081.71 30H3897.43L3927.43 0Z" fill="#EE7F01"/>
<path d="M4296 0H4480.29L4450.29 30H4266L4296 0Z" fill="#EE7F01"/>
<path d="M4664.29 0H4848.57L4818.57 30H4634.29L4664.29 0Z" fill="#EE7F01"/>
<path d="M5585.71 0H5770L5740 30H5555.71L5585.71 0Z" fill="black"/>
<path d="M4848.57 0H5032.86L5002.86 30H4818.57L4848.57 0Z" fill="black"/>
<path d="M4480 0H4664.29L4634.29 30H4450L4480 0Z" fill="black"/>
<path d="M5032.86 0H5217.14L5187.14 30H5002.86L5032.86 0Z" fill="#EE7F01"/>
<path d="M5217.14 0H5401.43L5371.43 30H5187.14L5217.14 0Z" fill="black"/>
<path d="M5401.43 0H5585.71L5555.71 30H5371.43L5401.43 0Z" fill="#EE7F01"/>
<path d="M5770 0H5954.29L5924.29 30H5740L5770 0Z" fill="#EE7F01"/>
<path d="M216.304 0H402.322L372.04 30H186.022L216.304 0Z" fill="#EE7F01"/>
<path d="M1146.39 0H1332.4L1302.12 30H1116.1L1146.39 0Z" fill="black"/>
<path d="M402.312 0H588.33L558.048 30H372.03L402.312 0Z" fill="black"/>
<path d="M30.282 0H216.3L186.018 30H0L30.282 0Z" fill="black"/>
<path d="M588.334 0H774.352L744.07 30H558.052L588.334 0Z" fill="#EE7F01"/>
<path d="M774.356 0H960.374L930.092 30H744.074L774.356 0Z" fill="black"/>
<path d="M960.378 0H1146.4L1116.11 30H930.096L960.378 0Z" fill="#EE7F01"/>
<path d="M1332.41 0H1518.43L1488.15 30H1302.13L1332.41 0Z" fill="#EE7F01"/>
<path d="M1704.15 0H1890.17L1859.89 30H1673.87L1704.15 0Z" fill="#EE7F01"/>
<path d="M2634.25 0H2820.27L2789.99 30H2603.97L2634.25 0Z" fill="black"/>
<path d="M1890.18 0H2076.19L2045.91 30H1859.89L1890.18 0Z" fill="black"/>
<path d="M1518.15 0H1704.16L1673.88 30H1487.86L1518.15 0Z" fill="black"/>
<path d="M2076.2 0H2262.22L2231.93 30H2045.92L2076.2 0Z" fill="#EE7F01"/>
<path d="M2262.21 0H2448.22L2417.94 30H2231.92L2262.21 0Z" fill="black"/>
<path d="M2448.23 0H2634.25L2603.96 30H2417.95L2448.23 0Z" fill="#EE7F01"/>
<path d="M2820.26 0H3006.28L2975.99 30H2789.98L2820.26 0Z" fill="#EE7F01"/>
</svg>
