<svg width="42" height="42" viewBox="0 0 42 42" fill="none" xmlns="http://www.w3.org/2000/svg">
<path d="M21.0001 3.29175C11.2355 3.29175 3.29175 11.2355 3.29175 21.0001C3.29175 30.7647 11.2355 38.7084 21.0001 38.7084C30.7647 38.7084 38.7084 30.7647 38.7084 21.0001C38.7084 11.2355 30.7647 3.29175 21.0001 3.29175Z" fill="#EE7F01"/>
<path fill-rule="evenodd" clip-rule="evenodd" d="M28.2329 25.5676C27.8329 25.5676 27.4308 25.4156 27.1266 25.1072L20.9995 18.9551L14.8766 25.1072C14.2683 25.7197 13.2787 25.7197 12.6662 25.1114C12.0558 24.5031 12.0516 23.5156 12.662 22.9031L19.8933 15.6385C20.4787 15.0489 21.5204 15.0489 22.1079 15.6385L29.3391 22.9031C29.9475 23.5156 29.9454 24.5031 29.3349 25.1114C29.0308 25.4156 28.6308 25.5676 28.2329 25.5676" fill="white"/>
</svg>
