<svg width="280" height="17" viewBox="0 0 280 17" fill="none" xmlns="http://www.w3.org/2000/svg">
<path fill-rule="evenodd" clip-rule="evenodd" d="M-98 0L-98 8.64574C-98 13.2597 -94.2597 17 -89.6457 17H-60.8125L-42.1125 0H-89.5H-98ZM378 0H369.5H359.513L340.812 17H369.5C374.194 17 378 13.1944 378 8.5V0ZM283.438 17L302.138 0H244.763L226.062 17H283.438ZM168.688 17L187.388 0H130.013L111.312 17H168.688ZM53.9375 17L72.6375 0H15.2625L-3.43751 17H53.9375Z" fill="black"/>
<path d="M15.2625 0H-42.1125L-60.8125 17H-3.43751L15.2625 0Z" fill="#EE7F01"/>
<path d="M130.013 0H72.6375L53.9375 17H111.312L130.013 0Z" fill="#EE7F01"/>
<path d="M244.763 0H187.388L168.688 17H226.062L244.763 0Z" fill="#EE7F01"/>
<path d="M359.513 0H302.138L283.438 17H340.812L359.513 0Z" fill="#EE7F01"/>
</svg>
