<svg width="20" height="21" viewBox="0 0 20 21" fill="none" xmlns="http://www.w3.org/2000/svg">
<path fill-rule="evenodd" clip-rule="evenodd" d="M5.665 2C3.135 2 1.5 3.733 1.5 6.416V14.584C1.5 17.267 3.135 19 5.665 19H14.333C16.864 19 18.5 17.267 18.5 14.584V6.416C18.5 3.733 16.864 2 14.334 2H5.665ZM14.333 20.5H5.665C2.276 20.5 0 18.122 0 14.584V6.416C0 2.878 2.276 0.5 5.665 0.5H14.334C17.723 0.5 20 2.878 20 6.416V14.584C20 18.122 17.723 20.5 14.333 20.5Z" fill="#EE7F01"/>
<path fill-rule="evenodd" clip-rule="evenodd" d="M8.81345 13.623C8.62245 13.623 8.42945 13.55 8.28345 13.403L5.90945 11.03C5.61645 10.737 5.61645 10.263 5.90945 9.97001C6.20245 9.67701 6.67645 9.67701 6.96945 9.97001L8.81345 11.812L13.0294 7.59701C13.3224 7.30401 13.7964 7.30401 14.0894 7.59701C14.3824 7.89001 14.3824 8.36401 14.0894 8.65701L9.34345 13.403C9.19745 13.55 9.00545 13.623 8.81345 13.623Z" fill="#EE7F01"/>
</svg>
