<svg width="808" height="10" viewBox="0 0 808 10" fill="none" xmlns="http://www.w3.org/2000/svg">
<path d="M10 0H71.4286L61.4286 10H0L10 0Z" fill="#EE7F01"/>
<path d="M685 0H746.429L736.429 10H675L685 0Z" fill="black"/>
<path d="M440 0H501.429L491.429 10H430L440 0Z" fill="black"/>
<path d="M501 0H562.429L552.429 10H491L501 0Z" fill="#EE7F01"/>
<path d="M562 0H623.429L613.429 10H552L562 0Z" fill="black"/>
<path d="M623.428 0H684.857L674.857 10H613.428L623.428 0Z" fill="#EE7F01"/>
<path d="M746.428 0H807.857L797.857 10H736.428L746.428 0Z" fill="#EE7F01"/>
<path d="M317.143 0H378.571L368.571 10H307.143L317.143 0Z" fill="black"/>
<path d="M71.4285 0H132.857L122.857 10H61.4285L71.4285 0Z" fill="black"/>
<path d="M132.857 0H194.286L184.286 10H122.857L132.857 0Z" fill="#EE7F01"/>
<path d="M194.286 0H255.714L245.714 10H184.286L194.286 0Z" fill="black"/>
<path d="M255.714 0H317.143L307.143 10H245.714L255.714 0Z" fill="#EE7F01"/>
<path d="M378.571 0H440L430 10H368.571L378.571 0Z" fill="#EE7F01"/>
</svg>
