<svg width="21" height="22" viewBox="0 0 21 22" fill="none" xmlns="http://www.w3.org/2000/svg">
<path fill-rule="evenodd" clip-rule="evenodd" d="M1.28872 2.58785L1.36127 2.51204C3.28869 0.58444 4.54385 0.0735119 5.88307 0.843622C6.2683 1.06515 6.62945 1.37523 7.12054 1.87401L8.62691 3.43603C9.45894 4.34393 9.64808 5.21478 9.37716 6.23465L9.33984 6.36967L9.29841 6.50392L9.09704 7.09474C8.66602 8.41972 8.84597 9.16728 10.3795 10.7004C11.9742 12.2947 12.7186 12.4251 14.1457 11.9264L14.4001 11.838L14.7077 11.7381L14.8423 11.7007C15.9263 11.4115 16.842 11.6423 17.8132 12.6128L19.0269 13.7852L19.3842 14.1366C19.7803 14.5405 20.0421 14.8606 20.2355 15.1989C21.0008 16.5377 20.4893 17.7921 18.5063 19.7677L18.3177 19.9589C18.0216 20.2442 17.745 20.4486 17.3386 20.6416C16.6565 20.9655 15.8506 21.0876 14.9142 20.9573C12.6067 20.6364 9.68016 18.8158 5.97188 15.1085C5.67002 14.8067 5.3809 14.5107 5.10425 14.2205L4.56748 13.6476C-0.462377 8.18285 -0.906112 4.82588 1.15518 2.7205L1.28872 2.58785ZM5.90641 2.78093C5.58062 2.45973 5.34396 2.26394 5.13532 2.14396C4.67379 1.87856 4.1755 1.99074 3.25329 2.78448L2.96353 3.04334C2.91299 3.09 2.86129 3.13843 2.80838 3.18868L2.47611 3.51231L2.44617 3.54972L2.22091 3.77603C1.67656 4.33204 1.41871 5.01064 1.6409 6.17767C2.00551 8.09269 3.67442 10.6905 7.0324 14.0477C10.5313 17.5456 13.1972 19.2041 15.1208 19.4716C16.2422 19.6276 16.8142 19.356 17.3975 18.7584L17.8424 18.3095C18.051 18.0912 18.2292 17.8933 18.3797 17.7126L18.585 17.4539C19.1097 16.7551 19.1576 16.3358 18.9332 15.9433C18.8479 15.7939 18.7237 15.6302 18.5429 15.43L18.2977 15.171L18.1525 15.0258L16.6213 13.5472C16.1096 13.0753 15.7599 13.0084 15.229 13.15L15.0757 13.1941L14.4414 13.4094C12.6013 14.0037 11.2738 13.7155 9.31894 11.7612C7.29429 9.73705 7.05685 8.38537 7.73522 6.43917L7.77874 6.31411L7.89908 5.95153L7.95823 5.72043C8.06314 5.21746 7.94337 4.86677 7.40269 4.32601C7.38043 4.30375 7.35555 4.27866 7.32847 4.2512L5.90641 2.78093Z" fill="#EE7F01"/>
</svg>
