<svg width="1440" height="30" viewBox="0 0 1440 30" fill="none" xmlns="http://www.w3.org/2000/svg">
<path d="M183.286 0H367.571L337.571 30H153.286L183.286 0Z" fill="#EE7F01"/>
<path d="M1104.71 0H1289L1259 30H1074.71L1104.71 0Z" fill="black"/>
<path d="M367.571 0H551.857L521.857 30H337.571L367.571 0Z" fill="black"/>
<path d="M-1 0H183.286L153.286 30H-31L-1 0Z" fill="black"/>
<path d="M551.857 0H736.143L706.143 30H521.857L551.857 0Z" fill="#EE7F01"/>
<path d="M736.143 0H920.428L890.428 30H706.143L736.143 0Z" fill="black"/>
<path d="M920.428 0H1104.71L1074.71 30H890.428L920.428 0Z" fill="#EE7F01"/>
<path d="M1289 0H1473.29L1443.29 30H1259L1289 0Z" fill="#EE7F01"/>
</svg>
