<svg width="28" height="28" viewBox="0 0 28 28" fill="none" xmlns="http://www.w3.org/2000/svg">
<g filter="url(#filter0_d_1126_1211)">
<mask id="mask0_1126_1211" style="mask-type:luminance" maskUnits="userSpaceOnUse" x="4" y="0" width="19" height="19">
<path fill-rule="evenodd" clip-rule="evenodd" d="M4.83337 0.833313H22.6871V18.6872H4.83337V0.833313Z" fill="white"/>
</mask>
<g mask="url(#mask0_1126_1211)">
<path fill-rule="evenodd" clip-rule="evenodd" d="M13.7605 2.20831C9.59613 2.20831 6.20813 5.5954 6.20813 9.75981C6.20813 13.9242 9.59613 17.3122 13.7605 17.3122C17.924 17.3122 21.312 13.9242 21.312 9.75981C21.312 5.5954 17.924 2.20831 13.7605 2.20831ZM13.7605 18.6872C8.83805 18.6872 4.83313 14.6823 4.83313 9.75981C4.83313 4.83731 8.83805 0.833313 13.7605 0.833313C18.683 0.833313 22.687 4.83731 22.687 9.75981C22.687 14.6823 18.683 18.6872 13.7605 18.6872Z" fill="#EE7F01"/>
</g>
<mask id="mask1_1126_1211" style="mask-type:luminance" maskUnits="userSpaceOnUse" x="18" y="15" width="6" height="5">
<path fill-rule="evenodd" clip-rule="evenodd" d="M18.8033 15.2313H23.4087V19.8282H18.8033V15.2313Z" fill="white"/>
</mask>
<g mask="url(#mask1_1126_1211)">
<path fill-rule="evenodd" clip-rule="evenodd" d="M22.7214 19.8282C22.5463 19.8282 22.3703 19.7613 22.2356 19.6274L19.0052 16.4063C18.7367 16.1377 18.7357 15.7023 19.0043 15.4337C19.272 15.1633 19.7074 15.1651 19.9769 15.4318L23.2072 18.6539C23.4758 18.9225 23.4767 19.357 23.2082 19.6256C23.0743 19.7613 22.8974 19.8282 22.7214 19.8282Z" fill="#EE7F01"/>
</g>
</g>
<defs>
<filter id="filter0_d_1126_1211" x="0.833374" y="0.833313" width="26.5753" height="26.9949" filterUnits="userSpaceOnUse" color-interpolation-filters="sRGB">
<feFlood flood-opacity="0" result="BackgroundImageFix"/>
<feColorMatrix in="SourceAlpha" type="matrix" values="0 0 0 0 0 0 0 0 0 0 0 0 0 0 0 0 0 0 127 0" result="hardAlpha"/>
<feOffset dy="4"/>
<feGaussianBlur stdDeviation="2"/>
<feComposite in2="hardAlpha" operator="out"/>
<feColorMatrix type="matrix" values="0 0 0 0 0 0 0 0 0 0 0 0 0 0 0 0 0 0 0.25 0"/>
<feBlend mode="normal" in2="BackgroundImageFix" result="effect1_dropShadow_1126_1211"/>
<feBlend mode="normal" in="SourceGraphic" in2="effect1_dropShadow_1126_1211" result="shape"/>
</filter>
</defs>
</svg>
