<svg width="36" height="36" viewBox="0 0 36 36" fill="none" xmlns="http://www.w3.org/2000/svg">
<mask id="mask0_14_51" style="mask-type:luminance" maskUnits="userSpaceOnUse" x="10" y="20" width="16" height="8">
<path fill-rule="evenodd" clip-rule="evenodd" d="M10 20.4961H25.8399V27.8701H10V20.4961Z" fill="none"/>
</mask>
<g mask="url(#mask0_14_51)">
<path fill-rule="evenodd" clip-rule="evenodd" d="M17.921 21.9961C13.66 21.9961 11.5 22.7281 11.5 24.1731C11.5 25.6311 13.66 26.3701 17.921 26.3701C22.181 26.3701 24.34 25.6381 24.34 24.1931C24.34 22.7351 22.181 21.9961 17.921 21.9961M17.921 27.8701C15.962 27.8701 10 27.8701 10 24.1731C10 20.8771 14.521 20.4961 17.921 20.4961C19.88 20.4961 25.84 20.4961 25.84 24.1931C25.84 27.4891 21.32 27.8701 17.921 27.8701" fill="black"/>
</g>
<mask id="mask1_14_51" style="mask-type:luminance" maskUnits="userSpaceOnUse" x="12" y="8" width="12" height="11">
<path fill-rule="evenodd" clip-rule="evenodd" d="M12.6099 8H23.2299V18.6186H12.6099V8Z" fill="none"/>
</mask>
<g mask="url(#mask1_14_51)">
<path fill-rule="evenodd" clip-rule="evenodd" d="M17.9209 9.42751C15.7799 9.42751 14.0379 11.1685 14.0379 13.3095C14.0309 15.4435 15.7599 17.1835 17.8919 17.1915L17.9209 17.9055V17.1915C20.0609 17.1915 21.8019 15.4495 21.8019 13.3095C21.8019 11.1685 20.0609 9.42751 17.9209 9.42751M17.9209 18.6185H17.8889C14.9669 18.6095 12.5999 16.2265 12.6099 13.3065C12.6099 10.3815 14.9919 7.99951 17.9209 7.99951C20.8489 7.99951 23.2299 10.3815 23.2299 13.3095C23.2299 16.2375 20.8489 18.6185 17.9209 18.6185" fill="black"/>
</g>
<rect x="0.5" y="0.5" width="35" height="35" rx="4.5" stroke="black"/>
</svg>
