<svg width="20" height="20" viewBox="0 0 20 20" fill="none" xmlns="http://www.w3.org/2000/svg">
<mask id="mask0_1126_178" style="mask-type:luminance" maskUnits="userSpaceOnUse" x="0" y="0" width="19" height="19">
<path fill-rule="evenodd" clip-rule="evenodd" d="M0.833252 0.833252H18.687V18.6872H0.833252V0.833252Z" fill="#999999"/>
</mask>
<g mask="url(#mask0_1126_178)">
<path fill-rule="evenodd" clip-rule="evenodd" d="M9.76042 2.20825C5.59601 2.20825 2.20801 5.59534 2.20801 9.75975C2.20801 13.9242 5.59601 17.3122 9.76042 17.3122C13.9239 17.3122 17.3119 13.9242 17.3119 9.75975C17.3119 5.59534 13.9239 2.20825 9.76042 2.20825M9.76042 18.6872C4.83792 18.6872 0.833008 14.6823 0.833008 9.75975C0.833008 4.83725 4.83792 0.833252 9.76042 0.833252C14.6829 0.833252 18.6869 4.83725 18.6869 9.75975C18.6869 14.6823 14.6829 18.6872 9.76042 18.6872" fill="white"/>
</g>
<mask id="mask1_1126_178" style="mask-type:luminance" maskUnits="userSpaceOnUse" x="14" y="15" width="6" height="5">
<path fill-rule="evenodd" clip-rule="evenodd" d="M14.8032 15.2312H19.4086V19.8281H14.8032V15.2312Z" fill="#999999"/>
</mask>
<g mask="url(#mask1_1126_178)">
<path fill-rule="evenodd" clip-rule="evenodd" d="M18.7213 19.8281C18.5462 19.8281 18.3702 19.7611 18.2355 19.6273L15.0051 16.4061C14.7365 16.1376 14.7356 15.7021 15.0042 15.4336C15.2719 15.1631 15.7073 15.165 15.9768 15.4317L19.2071 18.6538C19.4757 18.9224 19.4766 19.3569 19.208 19.6255C19.0742 19.7611 18.8973 19.8281 18.7213 19.8281" fill="white"/>
</g>
</svg>
