<svg width="22" height="20" viewBox="0 0 22 20" fill="none" xmlns="http://www.w3.org/2000/svg">
<path fill-rule="evenodd" clip-rule="evenodd" d="M10.777 11.4647C10.108 11.4647 9.44098 11.2437 8.88298 10.8017L4.39798 7.18574C4.07498 6.92574 4.02498 6.45274 4.28398 6.13074C4.54498 5.80974 5.01698 5.75874 5.33898 6.01774L9.81998 9.62974C10.383 10.0757 11.176 10.0757 11.743 9.62574L16.179 6.01974C16.501 5.75674 16.973 5.80674 17.235 6.12874C17.496 6.44974 17.447 6.92174 17.126 7.18374L12.682 10.7957C12.12 11.2417 11.448 11.4647 10.777 11.4647Z" fill="white"/>
<mask id="mask0_36_1238" style="mask-type:luminance" maskUnits="userSpaceOnUse" x="0" y="0" width="22" height="20">
<path fill-rule="evenodd" clip-rule="evenodd" d="M0 0H21.4999V19.5H0V0Z" fill="white"/>
</mask>
<g mask="url(#mask0_36_1238)">
<path fill-rule="evenodd" clip-rule="evenodd" d="M5.839 18H15.659C15.661 17.998 15.669 18 15.675 18C16.816 18 17.828 17.592 18.604 16.817C19.505 15.92 20 14.631 20 13.188V6.32C20 3.527 18.174 1.5 15.659 1.5H5.841C3.326 1.5 1.5 3.527 1.5 6.32V13.188C1.5 14.631 1.996 15.92 2.896 16.817C3.672 17.592 4.685 18 5.825 18H5.839ZM5.822 19.5C4.279 19.5 2.901 18.94 1.837 17.88C0.652 16.698 0 15.032 0 13.188V6.32C0 2.717 2.511 0 5.841 0H15.659C18.989 0 21.5 2.717 21.5 6.32V13.188C21.5 15.032 20.848 16.698 19.663 17.88C18.6 18.939 17.221 19.5 15.675 19.5H15.659H5.841H5.822Z" fill="white"/>
</g>
</svg>
